HIERARCHY
ROOT pelvis
{
  OFFSET 0 100 0
  CHANNELS 6 Xposition Yposition Zposition Zrotation Xrotation Yrotation
  JOINT pelvis_right_femur
  {
    OFFSET -10.78128 -3.44521 -0.5502486
    CHANNELS 3 Zrotation Xrotation Yrotation
    JOINT right_femur_tibia
    {
      OFFSET -0.8047443 -44.0398 -0.1307829
      CHANNELS 3 Zrotation Xrotation Yrotation
      JOINT right_tibia_foot
      {
        OFFSET 3.006224 -47.83518 -5
        CHANNELS 3 Zrotation Xrotation Yrotation
        End Site
        {
          OFFSET 0 -5 15
        }
      }
    }
  }
  JOINT pelvis_left_femur
  {
    OFFSET 10.78128 -3.44521 -0.5502486
    CHANNELS 3 Zrotation Xrotation Yrotation
    JOINT left_femur_tibia
    {
      OFFSET 0.8047443 -44.0398 -0.1307829
      CHANNELS 3 Zrotation Xrotation Yrotation
      JOINT left_tibia_foot
      {
        OFFSET -4.370144 -48.10324 -4.275266
        CHANNELS 3 Zrotation Xrotation Yrotation
        End Site
        {
          OFFSET 0 -5 15
        }
      }
    }
  }
  JOINT pelvis_spine1
  {
    OFFSET 0 6.468898 -3.129235
    CHANNELS 3 Zrotation Xrotation Yrotation
    JOINT spine1
    {
      OFFSET 0 23.15396 4.99043
      CHANNELS 3 Zrotation Xrotation Yrotation
      JOINT spine2
      {
        OFFSET 0 20.79997 -5.064912
        CHANNELS 3 Zrotation Xrotation Yrotation
        JOINT neck
        {
          OFFSET 0 14.38658 9.616178
          CHANNELS 3 Zrotation Xrotation Yrotation
          End Site
          {
            OFFSET 0 20 0
          }
        }
      }
      JOINT right_manubrium
      {
        OFFSET -5.722621 16.35077 3.967754
        CHANNELS 3 Zrotation Xrotation Yrotation
        JOINT right_clavicle
        {
          OFFSET -13.16364 1.694482 -4.693211
          CHANNELS 3 Zrotation Xrotation Yrotation
          JOINT right_humerus
          {
            OFFSET -28.5034 -0.3100689 -2.792744
            CHANNELS 3 Zrotation Xrotation Yrotation
            JOINT right_radius
            {
              OFFSET -25.15693 0.02248979 -1.271978
              CHANNELS 3 Zrotation Xrotation Yrotation
              End Site
              {
                OFFSET -15 0 0
              }
            }
          }
        }
      }
      JOINT left_manubrium
      {
        OFFSET 5.722621 16.35077 3.967754
        CHANNELS 3 Zrotation Xrotation Yrotation
        JOINT left_clavicle
        {
          OFFSET 13.16364 1.694482 -4.693211
          CHANNELS 3 Zrotation Xrotation Yrotation
          JOINT left_humerus
          {
            OFFSET 29.39168 -1.063119 -2.237045
            CHANNELS 3 Zrotation Xrotation Yrotation
            JOINT left_radius
            {
              OFFSET 24.59957 -0.9528479 0.9047498
              CHANNELS 3 Zrotation Xrotation Yrotation
              End Site
              {
                OFFSET 15 -0 -0
              }
            }
          }
        }
      }
    }
  }
}
MOTION
Frames: 15
Frame Time: 0.0416666666667
0 103.5113 0 2.601551 1.06409 -0.03473539 2.879527 -14.75815 11.39325 -0 38.4527 -0 -4.428909 -17.87629 -3.933442 -9.410365 9.085232 -21.85345 -0 5.872077 -0 22.77597 -8.86193 29.97742 -2.608797 -1.87708 5.669094 2.00395 10.5477 -6.22083 1.703599 22.00556 6.202828 2.836086 -24.20965 9.662742 5.102637 -19.9396 10.91304 87.15862 39.40441 -17.90581 -0 0 13.52772 -7.000607 7.883003 4.823623 4.485591 -19.34123 -3.651487 -91.56649 21.56264 22.24798 0 0 -17.2523 15.14649 12.67159 -1.665525
0.3671939 102.9389 1.578201 1.909589 1.729033 -0.03792329 4.131923 -18.01387 11.97545 -0 38.42492 -0 -4.51315 -17.50467 -3.513181 -8.963283 9.276774 -22.14499 -0 5.487337 -0 22.41735 -9.466386 30.34963 -2.633853 -1.806981 5.573199 2.152613 10.46969 -6.325774 1.677537 21.94875 6.297961 2.790018 -24.45592 9.812554 5.062336 -19.88865 10.9362 87.38091 39.66859 -18.18388 -0 0 13.24799 -6.55392 7.798036 4.713039 4.433416 -19.33819 -3.718041 -91.1701 21.63595 21.86323 0 0 -18.27825 15.32997 12.30471 -1.838645
0.472082 100.6062 5.531793 1.617668 -4.665867 0.187326 2.186793 -22.08786 -5.677508 -0 16.27054 -0 -12.09869 -1.235116 1.109224 -6.844306 13.06842 -14.13147 -0 11.71035 -0 11.68378 -15.90615 19.41248 -2.5415 -2.086993 5.647845 2.276735 10.55661 -6.491147 1.731575 21.94509 6.027452 2.618288 -24.60078 9.686359 5.195696 -19.88273 10.90156 87.26895 38.63506 -18.66663 -0 0 13.54477 -6.294811 7.783892 4.399821 4.492572 -19.49925 -3.534982 -92.1468 22.53262 22.67349 0 0 -17.39223 14.36167 13.10409 -0.6213114
0.5801587 98.7978 9.910795 1.237642 -3.419364 0.2554704 2.578544 -25.21147 -5.007503 -0 15.03293 -0 -11.33143 -0.4726182 1.221555 -6.784024 13.59664 -13.79751 -0 11.35646 -0 11.36134 -16.81395 19.26552 -2.497345 -2.120406 5.674266 2.219302 10.6 -6.462627 1.739257 21.9606 5.977334 2.632651 -24.50166 9.601314 5.235351 -19.85258 10.90415 87.16016 38.43546 -18.59449 -0 0 13.633 -6.542713 7.87942 4.46965 4.546536 -19.53188 -3.46374 -92.3367 22.56524 22.79068 0 0 -16.93685 14.16425 13.28155 -0.4397658
0.6070694 96.90691 15.17186 1.145207 -4.298309 0.3892706 2.518609 -25.63631 -7.331664 -0 10.42722 -0 -11.94464 3.488809 1.779638 -6.583897 14.57628 -10.97242 -0 16.13888 -0 10.04767 -16.30016 17.0941 -2.392428 -2.173319 5.721057 2.084133 10.68451 -6.389186 1.745026 21.98796 5.891112 2.677806 -24.27923 9.413675 5.314875 -19.76788 10.9211 86.90225 38.04569 -18.38224 -0 0 13.80557 -7.166141 8.120476 4.687654 4.679449 -19.60076 -3.289259 -92.67717 22.5766 22.95833 0 0 -15.99369 13.75543 13.60407 -0.1043121
0.6068477 95.28067 20.9248 0.906146 -4.039853 0.513924 2.906402 -26.53402 -7.317617 -0 8.899877 -0 -11.66455 5.045483 1.773043 -6.500796 15.21791 -9.748558 -0 19.00294 -0 9.337656 -15.95119 16.25404 -2.285815 -2.05495 5.690631 2.017384 10.72856 -6.303152 1.720185 22.00834 5.879213 2.699846 -24.13068 9.296406 5.357142 -19.58563 10.9873 86.74194 38.02265 -18.16483 -0 0 13.645 -7.629294 8.354908 5.015392 4.684821 -19.56363 -3.240883 -92.51867 22.49473 22.67633 0 0 -15.86512 13.55632 13.41406 -0.01187449
0.543849 93.93161 27.18369 0.5656703 -4.413483 0.5539718 3.62116 -25.82227 -7.177784 -0 8.020596 -0 -11.62789 6.574704 1.486988 -6.187608 15.54877 -8.19245 -0 24.5752 -0 7.845551 -14.6115 15.03734 -2.195319 -2.00592 5.714052 1.880441 10.78355 -6.183657 1.706436 22.03939 5.8473 2.755656 -23.8949 9.137076 5.394851 -19.48106 11.02742 86.48554 37.88963 -17.80619 -0 0 13.69664 -8.281767 8.587072 5.361877 4.751494 -19.54951 -3.132483 -92.56309 22.33268 22.60862 0 0 -15.26842 13.33605 13.43537 0.08457478
0.4201133 92.9947 33.79104 0.1095911 -4.59865 0.4522337 4.573907 -24.65589 -6.18505 -0 8.164904 -0 -11.26852 7.108792 0.8671651 -5.728499 15.32584 -7.127954 -0 30.4664 -0 5.962334 -13.08098 14.04892 -2.125933 -1.924658 5.72386 1.76605 10.82203 -6.066024 1.691018 22.07045 5.835673 2.803295 -23.68346 9.01339 5.413574 -19.38288 11.06909 86.27284 37.862 -17.45538 -0 0 13.68777 -8.829256 8.774126 5.693864 4.776293 -19.50185 -3.07401 -92.49388 22.13752 22.46662 0 0 -14.88822 13.21476 13.34435 0.08802253
0.2281111 92.4921 40.6028 -0.3915378 -4.958266 0.1330605 5.66485 -22.33752 -4.646686 -0 8.863489 -0 -10.67759 6.798821 -0.07425282 -5.053694 14.11088 -6.313925 -0 37.65033 -0 3.637604 -11.06786 13.21195 -2.069108 -1.889445 5.778068 1.572958 10.86107 -5.89017 1.682467 22.11798 5.817747 2.889034 -23.37603 8.853981 5.420818 -19.35027 11.09267 85.93574 37.78003 -16.8868 -0 0 13.87119 -9.61705 8.976567 6.106243 4.854886 -19.44589 -2.953861 -92.57435 21.81197 22.48498 0 0 -14.05306 13.11419 13.40778 0.022355
-0.02973028 92.39849 47.458 -0.7922525 -5.333533 -0.4082066 6.551769 -19.27127 -2.851781 -0 9.602687 -0 -9.755515 5.681475 -1.122687 -4.307965 11.86678 -5.857291 -0 44.77529 -0 1.280609 -9.049331 12.72226 -2.024449 -1.857857 5.842152 1.349755 10.88575 -5.677507 1.674245 22.17602 5.80882 2.989595 -23.02762 8.691112 5.41184 -19.34634 11.11243 85.53129 37.70824 -16.17462 -0 0 14.12564 -10.51013 9.173634 6.585778 4.941902 -19.3576 -2.816711 -92.67529 21.39748 22.54006 0 0 -13.06409 13.05491 13.4889 -0.1219789
-0.3538239 92.59438 54.22194 -0.9716906 -5.880896 -1.143075 7.017482 -15.48041 -1.227521 -0 9.940641 -0 -8.619096 4.073049 -2.085618 -3.593408 8.65145 -5.615389 -0 51.16952 -0 -0.8135447 -7.263247 12.673 -1.987107 -1.848087 5.921789 1.084147 10.88637 -5.416023 1.662712 22.24459 5.806871 3.108973 -22.62653 8.509626 5.382816 -19.38134 11.12965 84.99886 37.58512 -15.24426 -0 0 14.51683 -11.59956 9.377524 7.183201 5.059688 -19.23376 -2.623136 -92.85557 20.88183 22.68072 0 0 -11.77813 12.988 13.63532 -0.3207933
-0.7487831 92.9343 60.80151 -0.9285938 -6.593309 -2.01439 7.042777 -11.35705 0.0009605465 -0 9.773195 -0 -7.417884 2.288899 -2.822708 -2.981904 4.874115 -5.472844 -0 55.89659 -0 -2.448749 -5.971815 13.08487 -1.958318 -1.843719 5.998267 0.8126129 10.85398 -5.128684 1.64585 22.31745 5.815418 3.227599 -22.21644 8.330397 5.331785 -19.43926 11.14955 84.38464 37.42541 -14.16999 -0 0 14.98231 -12.77184 9.564561 7.865573 5.18165 -19.067 -2.40009 -93.05984 20.31921 22.85684 0 0 -10.38226 12.9064 13.78559 -0.547516
-1.217811 93.26548 67.13916 -0.7568775 -7.446828 -2.97251 6.781194 -7.146625 0.8230102 -0 9.255164 -0 -6.323509 0.4660867 -3.316027 -2.441045 0.8626802 -5.33391 -0 58.50177 -0 -3.587055 -5.215943 13.91823 -1.93805 -1.846827 6.068255 0.5478438 10.78366 -4.825058 1.623022 22.3907 5.832642 3.336938 -21.8151 8.158315 5.256891 -19.52081 11.17247 83.69931 37.21359 -12.97539 -0 0 15.52046 -13.99208 9.72463 8.62072 5.303712 -18.85711 -2.148195 -93.28947 19.73705 23.07194 0 0 -8.91678 12.79202 13.9359 -0.7766351
-1.754156 93.45849 73.2055 -0.5829726 -8.301325 -3.984987 6.416598 -3.069937 1.341223 -0 8.640944 -0 -5.478764 -1.441263 -3.585156 -1.902432 -3.166378 -5.1714 -0 58.79985 -0 -4.271032 -4.910987 15.04941 -1.927875 -1.852903 6.127896 0.3029462 10.67856 -4.517622 1.59667 22.46236 5.85567 3.429477 -21.43812 8.002097 5.160144 -19.62286 11.19681 82.98122 36.95926 -11.71694 -0 0 16.10364 -15.193 9.845755 9.411305 5.413901 -18.6077 -1.886368 -93.52854 19.16555 23.31538 0 0 -7.461447 12.64898 14.07306 -0.9927262
-2.338719 93.40372 78.99606 -0.4958956 -9.005108 -5.035077 6.072493 0.7724557 1.631633 -0 8.106196 -0 -4.97899 -3.538461 -3.647354 -1.303375 -7.141507 -4.985215 -0 56.79464 -0 -4.563334 -4.914273 16.32343 -1.928496 -1.863153 6.177334 0.08015111 10.5421 -4.210828 1.568348 22.53185 5.882378 3.504128 -21.08828 7.863503 5.043172 -19.74718 11.22087 82.24862 36.66289 -10.41922 -0 0 16.72704 -16.35245 9.925625 10.21947 5.510018 -18.32313 -1.62112 -93.77862 18.61331 23.59167 0 0 -6.029705 12.48037 14.20258 -1.190453
